# xmcd
#
# Track frame offsets: 
#        150
#        5384
#        31156
#        48904
#        60982
#        76711
#        91723
#        112898
#        137699
#        156563
#        172638
#        186951
#        200967
#        220868
#
# Disc length: 3320 seconds
#
# Revision: 0
# Processed by: cddbd v1.5.2PL0 Copyright (c) Steve Scherf et al.
# Submitted via: ExactAudioCopy v1.1
#
DISCID=a80cf60e
DTITLE=KSW4BLUES - Żyć albo rzyć
DYEAR=2018
DGENRE=Blues
TTITLE0=Prolog Blues (zły)
TTITLE1=Porzegnalmny Blues (Slepy koń)
TTITLE2=Fatalny Blues (Staszek Dziadek)
TTITLE3=Obłudny Blues (diabła ogonek)
TTITLE4=Zakochany Blues (o jej oczach)
TTITLE5=Zazdrosny Blues (wolę nie wiedzieć)
TTITLE6=Omotany Blues (Dalila)
TTITLE7=Mętny Blues (Tajemnica)
TTITLE8=Smutny Blues (zabić miłość)
TTITLE9=Opętany Blues (sztylet)
TTITLE10=Czarny Blues (zły)
TTITLE11=Grzeszny Blues (jedno, drugie, siedem)
TTITLE12=Czujny Blues (nie trać nadziei)
TTITLE13=Miłosny Blues (pociąg)
EXTD=
EXTT0=
EXTT1=
EXTT2=
EXTT3=
EXTT4=
EXTT5=
EXTT6=
EXTT7=
EXTT8=
EXTT9=
EXTT10=
EXTT11=
EXTT12=
EXTT13=
PLAYORDER=
